HIERARCHY
ROOT joint_Root
{
  OFFSET 0 0 0
  CHANNELS 6 Xposition Yposition Zposition Zrotation Xrotation Yrotation
  JOINT Hips
  {
    OFFSET 0 93.9241 -3
    CHANNELS 6 Xposition Yposition Zposition Zrotation Xrotation Yrotation
    JOINT Spine
    {
      OFFSET 15.7357 0 0
      CHANNELS 6 Xposition Yposition Zposition Zrotation Xrotation Yrotation
      JOINT Chest
      {
        OFFSET 8.98455 -0.406207 0
        CHANNELS 6 Xposition Yposition Zposition Zrotation Xrotation Yrotation
        JOINT Neck
        {
          OFFSET 16.3773 0 0
          CHANNELS 6 Xposition Yposition Zposition Zrotation Xrotation Yrotation
          JOINT Head
          {
            OFFSET 6.45672 0 0
            CHANNELS 6 Xposition Yposition Zposition Zrotation Xrotation Yrotation
            End Site
            {
              OFFSET 0 0 0
            }
          }
        }
        JOINT Shoulder_L
        {
          OFFSET 12.9942 -0.242716 4.98039
          CHANNELS 6 Xposition Yposition Zposition Zrotation Xrotation Yrotation
          JOINT UpperArm_L
          {
            OFFSET 5.34809 0 0
            CHANNELS 6 Xposition Yposition Zposition Zrotation Xrotation Yrotation
            JOINT LowerArm_L
            {
              OFFSET 24.3286 1.87007e-05 0
              CHANNELS 6 Xposition Yposition Zposition Zrotation Xrotation Yrotation
              JOINT Hand_L
              {
                OFFSET 22.2916 0 0
                CHANNELS 6 Xposition Yposition Zposition Zrotation Xrotation Yrotation
                End Site
                {
                  OFFSET 0 0 0
                }
              }
            }
          }
        }
        JOINT Shoulder_R
        {
          OFFSET 12.9945 -0.242716 -4.98039
          CHANNELS 6 Xposition Yposition Zposition Zrotation Xrotation Yrotation
          JOINT UpperArm_R
          {
            OFFSET -5.34813 0 0
            CHANNELS 6 Xposition Yposition Zposition Zrotation Xrotation Yrotation
            JOINT LowerArm_R
            {
              OFFSET -24.3289 0.000322201 0
              CHANNELS 6 Xposition Yposition Zposition Zrotation Xrotation Yrotation
              JOINT Hand_R
              {
                OFFSET -22.2915 -0.000108084 0
                CHANNELS 6 Xposition Yposition Zposition Zrotation Xrotation Yrotation
                End Site
                {
                  OFFSET 0 0 0
                }
              }
            }
          }
        }
      }
    }
    JOINT UpperLeg_L
    {
      OFFSET -2.19248 -6.46944 0
      CHANNELS 6 Xposition Yposition Zposition Zrotation Xrotation Yrotation
      JOINT LowerLeg_L
      {
        OFFSET 39.0811 0 -1.23785e-05
        CHANNELS 6 Xposition Yposition Zposition Zrotation Xrotation Yrotation
        JOINT Foot_L
        {
          OFFSET 40.9854 0 -1.26872e-05
          CHANNELS 6 Xposition Yposition Zposition Zrotation Xrotation Yrotation
          JOINT Toes_L
          {
            OFFSET 11.7543 0 0
            CHANNELS 6 Xposition Yposition Zposition Zrotation Xrotation Yrotation
            End Site
            {
              OFFSET 0 0 0
            }
          }
        }
      }
    }
    JOINT UpperLeg_R
    {
      OFFSET -2.19251 6.46944 0
      CHANNELS 6 Xposition Yposition Zposition Zrotation Xrotation Yrotation
      JOINT LowerLeg_R
      {
        OFFSET -39.0811 -0.00228153 -0.0401928
        CHANNELS 6 Xposition Yposition Zposition Zrotation Xrotation Yrotation
        JOINT Foot_R
        {
          OFFSET -40.9854 0 0
          CHANNELS 6 Xposition Yposition Zposition Zrotation Xrotation Yrotation
          JOINT Toes_R
          {
            OFFSET -11.7543 0 0
            CHANNELS 6 Xposition Yposition Zposition Zrotation Xrotation Yrotation
            End Site
            {
              OFFSET 0 0 0
            }
          }
        }
      }
    }
  }
}
MOTION
Frames:	4
Frame Time:	0.0333333
0 0 0 0 0 -0 2.78773 90.5937 -48.2243 93.5986 7.6818 1.11284 15.7357 5.1072e-06 -5.51765e-07 100.64 88.4329 -102.855 8.98455 -0.406207 -4.3199e-07 -4.66621 0.818379 -4.40049 16.3773 -1.3905e-06 -6.99897e-07 -5.82764 -1.51512 -2.85972 6.45672 -1.25837e-06 -1.02172e-07 3.43119 -6.01268 -0.741353 12.9942 -0.242716 4.98039 -91.6423 6.2404 -90.2237 5.34809 -7.22636e-06 -6.2814e-07 -53.2807 -42.8456 19.2774 24.3286 1.87007e-05 4.90208e-06 17.5503 17.5847 -46.3107 22.2916 -9.88446e-07 4.63217e-06 32.5641 5.37399 -2.10686 12.9945 -0.242716 -4.98039 89.488 2.48079 -93.3321 -5.34813 -1.25947e-06 -3.79883e-06 -60.9336 -26.5897 24.5352 -24.3289 0.000322201 -8.65921e-06 0.864055 3.57291 -13.6196 -22.2915 -0.000108084 -4.47941e-06 20.1088 5.44213 -4.36001 -2.19248 -6.46944 -1.22534e-07 168.674 -8.18456 -8.18148 39.0811 -6.73843e-06 -1.23785e-05 0.229063 -0.415974 25.7755 40.9854 -6.48686e-06 -1.26872e-05 11.2106 7.25599 -67.6741 11.7543 -2.30145e-07 3.05095e-06 0.00566042 -0.00629159 -16.6392 -2.19251 6.46944 -1.45247e-06 178.368 2.75094 151.909 -39.0811 -0.00228153 -0.0401928 -0.707116 0.301667 66.4102 -40.9854 7.72618e-06 5.99936e-06 18.3052 -28.2274 -41.6348 -11.7543 -5.6619e-06 -5.58687e-06 0.559443 -0.628251 -21.2563 
0 0 0 0 0 -0 2.50668 90.8525 -46.0193 92.9784 8.14509 1.20686 15.7357 5.1072e-06 -5.51765e-07 82.6357 88.3262 -84.7791 8.98455 -0.406207 -4.3199e-07 -4.44619 -0.200418 -4.29736 16.3773 -1.3905e-06 -6.99897e-07 -5.34204 -2.13742 -2.18916 6.45672 -1.25837e-06 -1.02172e-07 4.06774 -5.59017 0.282735 12.9942 -0.242716 4.98039 -91.5021 5.95968 -90.8259 5.34809 -7.22636e-06 -6.2814e-07 -55.8787 -42.1674 16.1541 24.3286 1.87007e-05 4.90208e-06 18.1109 17.7292 -47.044 22.2916 -9.88446e-07 4.63217e-06 33.981 5.40673 -3.15462 12.9945 -0.242716 -4.98039 89.4778 2.33777 -92.4039 -5.34813 -1.25947e-06 -3.79883e-06 -60.1591 -27.5983 25.4553 -24.3289 0.000322201 -8.65921e-06 1.09993 4.11732 -14.9843 -22.2915 -0.000108084 -4.47941e-06 20.7677 5.45157 -4.69586 -2.19248 -6.46944 -1.22533e-07 170.089 -8.86715 -5.6407 39.0811 -6.73843e-06 -1.23785e-05 0.171366 -0.329142 24.0751 40.9854 -6.48686e-06 -1.26872e-05 10.9211 8.31167 -68.528 11.7543 -2.30145e-07 3.05095e-06 -0.0111401 0.00950915 -16.577 -2.19251 6.46944 -1.45247e-06 178.486 -0.229379 149.984 -39.0811 -0.00228153 -0.0401928 -0.573909 0.319731 60.252 -40.9854 7.72618e-06 5.99936e-06 16.8747 -27.1664 -44.7902 -11.7543 -5.6619e-06 -5.58687e-06 0.547273 -0.613429 -21.1497 
0 0 0 0 0 -0 2.20613 91.0582 -43.792 92.4919 8.29289 1.22146 15.7357 5.1072e-06 -5.51765e-07 68.6463 88.1449 -70.7774 8.98455 -0.406207 -4.3199e-07 -4.32833 -1.12517 -4.30724 16.3773 -1.3905e-06 -6.99897e-07 -4.61672 -2.64725 -1.33599 6.45672 -1.25837e-06 -1.02172e-07 4.47928 -4.99719 1.23282 12.9942 -0.242716 4.98039 -91.3335 5.56718 -91.5074 5.34809 -7.22636e-06 -6.2814e-07 -57.8588 -41.9495 14.0594 24.3286 1.87007e-05 4.90208e-06 19.0305 17.8419 -48.3855 22.2916 -9.88446e-07 4.63217e-06 35.1854 5.42567 -3.79113 12.9945 -0.242716 -4.98039 89.4562 2.27387 -91.5445 -5.34813 -1.25947e-06 -3.79883e-06 -59.3769 -28.3867 26.4387 -24.3289 0.000322201 -8.65921e-06 1.36204 4.56438 -16.646 -22.2915 -0.000108084 -4.47941e-06 21.5576 5.44537 -4.47514 -2.19248 -6.46944 -1.22534e-07 171.352 -9.24263 -3.02747 39.0811 -6.73843e-06 -1.23785e-05 0.123472 -0.255247 22.0426 40.9854 -6.48686e-06 -1.26872e-05 10.4056 8.76222 -69.126 11.7543 -2.30145e-07 3.05095e-06 -0.024735 0.0211027 -16.5764 -2.19251 6.46944 -1.45247e-06 178.324 -2.74347 149.4 -39.0811 -0.00228153 -0.0401928 -0.405761 0.313819 51.4509 -40.9854 7.72618e-06 5.99936e-06 15.3853 -25.0055 -47.2326 -11.7543 -5.6619e-06 -5.58687e-06 0.558339 -0.626917 -21.2467 
0 0 0 0 0 -0 1.96191 91.1299 -41.5665 92.4035 8.06106 1.08572 15.7357 5.1072e-06 -5.51765e-07 57.6389 87.9378 -59.8249 8.98455 -0.406207 -4.3199e-07 -4.31745 -1.9756 -4.44936 16.3773 -1.3905e-06 -6.99897e-07 -4.03968 -2.91691 -0.639433 6.45672 -1.25837e-06 -1.02172e-07 5.02103 -4.2586 1.94355 12.9942 -0.242716 4.98039 -91.2148 5.28517 -92.036 5.34809 -7.22636e-06 -6.2814e-07 -59.2821 -41.6838 12.62 24.3286 1.87007e-05 4.90208e-06 19.3425 17.4726 -49.4581 22.2916 -9.88446e-07 4.63217e-06 36.7575 5.42807 -3.87318 12.9945 -0.242716 -4.98039 89.4664 2.10903 -90.7962 -5.34813 -1.25947e-06 -3.79883e-06 -58.5664 -29.18 27.2338 -24.3289 0.000322201 -8.65921e-06 1.62659 4.9354 -18.277 -22.2915 -0.000108084 -4.47941e-06 22.1577 5.44285 -4.38562 -2.19248 -6.46944 -1.22534e-07 172.051 -9.46079 -0.494385 39.0811 -6.73843e-06 -1.23785e-05 0.0827483 -0.184244 19.8618 40.9854 -6.48686e-06 -1.26872e-05 9.82336 8.64046 -69.565 11.7543 -2.30145e-07 3.05095e-06 -0.0242078 0.0205547 -16.5763 -2.19251 6.46944 -1.45247e-06 177.897 -4.19189 150.184 -39.0811 -0.00228153 -0.0401928 -0.252109 0.290747 39.8069 -40.9854 7.72618e-06 5.99936e-06 13.7426 -23.5382 -48.1826 -11.7543 -5.6619e-06 -5.58687e-06 0.543461 -0.608795 -21.1163 
